# xmcd CD database file
#
# Track frame offsets:
#	150
#	14030
#	27780
#	41640
#	52747
#	66067
#	76870
#	90880
#	102070
#	115810
#
# Disc length: 1689 seconds
#
# Revision: 3
# Processed by: cddbd v1.5.1PL0 Copyright (c) Steve Scherf et al.
# Submitted via: CDex 1.51
#
DISCID=6906970a
DTITLE=Lefty Frizzell - American Originals
DYEAR=1990
DGENRE=Country
TTITLE0=Saginaw Michigan
TTITLE1=Mom and Dad's Waltz
TTITLE2=Long Black Veil
TTITLE3=A Little Unfair
TTITLE4=Don't Stay Away
TTITLE5=She's Gone Gone Gone
TTITLE6=Always Late
TTITLE7=Look What Thoughts Will Do
TTITLE8=I Want To Be With You Always
TTITLE9=Forever
EXTD=YEAR: 1990
EXTT0=
EXTT1=
EXTT2=
EXTT3=
EXTT4=
EXTT5=
EXTT6=
EXTT7=
EXTT8=
EXTT9=
PLAYORDER=
